<svg width="457" height="34" viewBox="0 0 457 34" fill="none" xmlns="http://www.w3.org/2000/svg">
<path d="M21.3825 25V10.4545H30.104V12.017H23.1438V16.9318H29.4506V18.4943H23.1438V25H21.3825ZM36.5245 25.2273C35.5397 25.2273 34.6755 24.9929 33.9322 24.5241C33.1935 24.0554 32.6159 23.3996 32.1992 22.5568C31.7873 21.714 31.5813 20.7292 31.5813 19.6023C31.5813 18.4659 31.7873 17.474 32.1992 16.6264C32.6159 15.7789 33.1935 15.1207 33.9322 14.652C34.6755 14.1832 35.5397 13.9489 36.5245 13.9489C37.5094 13.9489 38.3711 14.1832 39.1097 14.652C39.8531 15.1207 40.4308 15.7789 40.8427 16.6264C41.2594 17.474 41.4677 18.4659 41.4677 19.6023C41.4677 20.7292 41.2594 21.714 40.8427 22.5568C40.4308 23.3996 39.8531 24.0554 39.1097 24.5241C38.3711 24.9929 37.5094 25.2273 36.5245 25.2273ZM36.5245 23.7216C37.2726 23.7216 37.8881 23.5298 38.3711 23.1463C38.854 22.7628 39.2115 22.2585 39.4435 21.6335C39.6755 21.0085 39.7915 20.3314 39.7915 19.6023C39.7915 18.8731 39.6755 18.1937 39.4435 17.5639C39.2115 16.9342 38.854 16.4252 38.3711 16.0369C37.8881 15.6487 37.2726 15.4545 36.5245 15.4545C35.7764 15.4545 35.1609 15.6487 34.6779 16.0369C34.195 16.4252 33.8375 16.9342 33.6055 17.5639C33.3735 18.1937 33.2575 18.8731 33.2575 19.6023C33.2575 20.3314 33.3735 21.0085 33.6055 21.6335C33.8375 22.2585 34.195 22.7628 34.6779 23.1463C35.1609 23.5298 35.7764 23.7216 36.5245 23.7216ZM45.7024 10.4545V25H44.0263V10.4545H45.7024ZM50.4485 10.4545V25H48.7724V10.4545H50.4485ZM57.9503 25.2273C56.9654 25.2273 56.1013 24.9929 55.358 24.5241C54.6193 24.0554 54.0417 23.3996 53.625 22.5568C53.2131 21.714 53.0071 20.7292 53.0071 19.6023C53.0071 18.4659 53.2131 17.474 53.625 16.6264C54.0417 15.7789 54.6193 15.1207 55.358 14.652C56.1013 14.1832 56.9654 13.9489 57.9503 13.9489C58.9351 13.9489 59.7969 14.1832 60.5355 14.652C61.2789 15.1207 61.8565 15.7789 62.2685 16.6264C62.6851 17.474 62.8935 18.4659 62.8935 19.6023C62.8935 20.7292 62.6851 21.714 62.2685 22.5568C61.8565 23.3996 61.2789 24.0554 60.5355 24.5241C59.7969 24.9929 58.9351 25.2273 57.9503 25.2273ZM57.9503 23.7216C58.6984 23.7216 59.3139 23.5298 59.7969 23.1463C60.2798 22.7628 60.6373 22.2585 60.8693 21.6335C61.1013 21.0085 61.2173 20.3314 61.2173 19.6023C61.2173 18.8731 61.1013 18.1937 60.8693 17.5639C60.6373 16.9342 60.2798 16.4252 59.7969 16.0369C59.3139 15.6487 58.6984 15.4545 57.9503 15.4545C57.2022 15.4545 56.5866 15.6487 56.1037 16.0369C55.6207 16.4252 55.2633 16.9342 55.0312 17.5639C54.7992 18.1937 54.6832 18.8731 54.6832 19.6023C54.6832 20.3314 54.7992 21.0085 55.0312 21.6335C55.2633 22.2585 55.6207 22.7628 56.1037 23.1463C56.5866 23.5298 57.2022 23.7216 57.9503 23.7216ZM67.5526 25L64.2287 14.0909H65.9901L68.348 22.4432H68.4616L70.7912 14.0909H72.581L74.8821 22.4148H74.9957L77.3537 14.0909H79.1151L75.7912 25H74.1435L71.7571 16.6193H71.5866L69.2003 25H67.5526ZM93.831 20.5398V14.0909H95.5071V25H93.831V23.1534H93.7173C93.4616 23.7074 93.0639 24.1785 92.5241 24.5668C91.9844 24.9503 91.3026 25.142 90.4787 25.142C89.7969 25.142 89.1908 24.9929 88.6605 24.6946C88.1302 24.3916 87.7135 23.937 87.4105 23.331C87.1075 22.7202 86.956 21.9508 86.956 21.0227V14.0909H88.6321V20.9091C88.6321 21.7045 88.8546 22.339 89.2997 22.8125C89.7495 23.286 90.3224 23.5227 91.0185 23.5227C91.4351 23.5227 91.8589 23.4162 92.2898 23.2031C92.7254 22.9901 93.09 22.6634 93.3835 22.223C93.6818 21.7827 93.831 21.2216 93.831 20.5398ZM106.304 16.5341L104.799 16.9602C104.704 16.7093 104.564 16.4654 104.38 16.2287C104.2 15.9872 103.953 15.7884 103.641 15.6321C103.328 15.4759 102.928 15.3977 102.441 15.3977C101.773 15.3977 101.217 15.5516 100.772 15.8594C100.331 16.1624 100.111 16.5483 100.111 17.017C100.111 17.4337 100.263 17.7628 100.566 18.0043C100.869 18.2457 101.342 18.447 101.986 18.608L103.605 19.0057C104.581 19.2424 105.308 19.6046 105.786 20.0923C106.264 20.5753 106.503 21.1979 106.503 21.9602C106.503 22.5852 106.323 23.1439 105.963 23.6364C105.608 24.1288 105.111 24.517 104.472 24.8011C103.833 25.0852 103.089 25.2273 102.242 25.2273C101.129 25.2273 100.208 24.9858 99.479 24.5028C98.7499 24.0199 98.2882 23.3144 98.0941 22.3864L99.685 21.9886C99.8365 22.5758 100.123 23.0161 100.544 23.3097C100.971 23.6032 101.527 23.75 102.213 23.75C102.995 23.75 103.615 23.5843 104.074 23.2528C104.538 22.9167 104.77 22.5142 104.77 22.0455C104.77 21.6667 104.638 21.3494 104.373 21.0938C104.107 20.8333 103.7 20.6392 103.151 20.5114L101.333 20.0852C100.334 19.8485 99.5998 19.4815 99.131 18.9844C98.667 18.4825 98.435 17.8551 98.435 17.1023C98.435 16.4867 98.6078 15.9422 98.9535 15.4688C99.3039 14.9953 99.7797 14.6236 100.381 14.3537C100.987 14.0838 101.674 13.9489 102.441 13.9489C103.52 13.9489 104.368 14.1856 104.983 14.6591C105.604 15.1326 106.044 15.7576 106.304 16.5341ZM110.248 25.1136C109.897 25.1136 109.597 24.9882 109.346 24.7372C109.095 24.4863 108.969 24.1856 108.969 23.8352C108.969 23.4848 109.095 23.1842 109.346 22.9332C109.597 22.6823 109.897 22.5568 110.248 22.5568C110.598 22.5568 110.899 22.6823 111.15 22.9332C111.401 23.1842 111.526 23.4848 111.526 23.8352C111.526 24.0672 111.467 24.2803 111.349 24.4744C111.235 24.6686 111.081 24.8248 110.887 24.9432C110.698 25.0568 110.485 25.1136 110.248 25.1136ZM110.248 17.017C109.897 17.017 109.597 16.8916 109.346 16.6406C109.095 16.3897 108.969 16.089 108.969 15.7386C108.969 15.3883 109.095 15.0876 109.346 14.8366C109.597 14.5857 109.897 14.4602 110.248 14.4602C110.598 14.4602 110.899 14.5857 111.15 14.8366C111.401 15.0876 111.526 15.3883 111.526 15.7386C111.526 15.9706 111.467 16.1837 111.349 16.3778C111.235 16.572 111.081 16.7282 110.887 16.8466C110.698 16.9602 110.485 17.017 110.248 17.017Z" fill="#F0F0F0"/>
<g clip-path="url(#clip0_27_18)">
<path d="M157.969 2H142.031C138.148 2 135 5.148 135 9.03125V24.9688C135 28.852 138.148 32 142.031 32H157.969C161.852 32 165 28.852 165 24.9688V9.03125C165 5.148 161.852 2 157.969 2Z" fill="url(#paint0_radial_27_18)"/>
<path d="M157.969 2H142.031C138.148 2 135 5.148 135 9.03125V24.9688C135 28.852 138.148 32 142.031 32H157.969C161.852 32 165 28.852 165 24.9688V9.03125C165 5.148 161.852 2 157.969 2Z" fill="url(#paint1_radial_27_18)"/>
<path d="M150.001 5.28125C146.818 5.28125 146.419 5.2952 145.169 5.35203C143.921 5.40922 143.07 5.60668 142.325 5.89648C141.554 6.19578 140.9 6.59621 140.249 7.24777C139.597 7.89922 139.196 8.55301 138.896 9.32352C138.606 10.0688 138.408 10.9208 138.352 12.1678C138.296 13.4178 138.281 13.8174 138.281 17.0001C138.281 20.1828 138.295 20.581 138.352 21.8309C138.409 23.0785 138.607 23.9301 138.896 24.6752C139.196 25.4461 139.596 26.0998 140.248 26.7512C140.899 27.4031 141.553 27.8045 142.323 28.1037C143.069 28.3936 143.921 28.591 145.168 28.6482C146.418 28.705 146.817 28.719 150 28.719C153.183 28.719 153.581 28.705 154.831 28.6482C156.078 28.591 156.931 28.3936 157.676 28.1037C158.447 27.8045 159.1 27.4031 159.751 26.7512C160.403 26.0998 160.803 25.4461 161.104 24.6755C161.392 23.9301 161.589 23.0783 161.648 21.8312C161.704 20.5812 161.719 20.1828 161.719 17.0001C161.719 13.8174 161.704 13.418 161.648 12.168C161.589 10.9204 161.392 10.0689 161.104 9.32387C160.803 8.55301 160.403 7.89922 159.751 7.24777C159.099 6.59598 158.447 6.19555 157.676 5.8966C156.929 5.60668 156.077 5.4091 154.829 5.35203C153.579 5.2952 153.181 5.28125 149.997 5.28125H150.001ZM148.95 7.39309C149.262 7.39262 149.61 7.39309 150.001 7.39309C153.13 7.39309 153.501 7.40434 154.736 7.46047C155.879 7.51273 156.499 7.70363 156.912 7.86406C157.459 8.07641 157.849 8.33035 158.259 8.74062C158.669 9.15078 158.923 9.54137 159.136 10.0883C159.296 10.5008 159.488 11.1209 159.54 12.2635C159.596 13.4989 159.608 13.8699 159.608 16.9974C159.608 20.1249 159.596 20.4961 159.54 21.7313C159.487 22.8739 159.296 23.4941 159.136 23.9067C158.924 24.4536 158.669 24.843 158.259 25.2529C157.849 25.6631 157.459 25.9169 156.912 26.1294C156.5 26.2905 155.879 26.4809 154.736 26.5332C153.501 26.5893 153.13 26.6015 150.001 26.6015C146.872 26.6015 146.501 26.5893 145.266 26.5332C144.123 26.4805 143.503 26.2896 143.09 26.1291C142.543 25.9167 142.152 25.6629 141.742 25.2527C141.332 24.8425 141.078 24.4529 140.865 23.9057C140.705 23.4931 140.513 22.873 140.461 21.7304C140.405 20.495 140.394 20.124 140.394 16.9945C140.394 13.865 140.405 13.496 140.461 12.2606C140.514 11.118 140.705 10.4979 140.865 10.0848C141.077 9.53785 141.332 9.14727 141.742 8.73711C142.152 8.32695 142.543 8.07301 143.09 7.8602C143.503 7.69906 144.123 7.50863 145.266 7.45613C146.347 7.40727 146.766 7.39262 148.95 7.39016V7.39309ZM156.257 9.33887C155.48 9.33887 154.85 9.96816 154.85 10.7446C154.85 11.521 155.48 12.1509 156.257 12.1509C157.033 12.1509 157.663 11.521 157.663 10.7446C157.663 9.96828 157.033 9.3384 156.257 9.3384V9.33887ZM150.001 10.982C146.678 10.982 143.983 13.6766 143.983 17.0001C143.983 20.3237 146.678 23.017 150.001 23.017C153.325 23.017 156.018 20.3237 156.018 17.0001C156.018 13.6767 153.324 10.982 150.001 10.982H150.001ZM150.001 13.0938C152.158 13.0938 153.907 14.8426 153.907 17.0001C153.907 19.1574 152.158 20.9064 150.001 20.9064C147.844 20.9064 146.095 19.1574 146.095 17.0001C146.095 14.8426 147.844 13.0938 150.001 13.0938Z" fill="white"/>
</g>
<g clip-path="url(#clip1_27_18)">
<path d="M208.969 2H193.031C189.148 2 186 5.148 186 9.03125V24.9688C186 28.852 189.148 32 193.031 32H208.969C212.852 32 216 28.852 216 24.9688V9.03125C216 5.148 212.852 2 208.969 2Z" fill="white"/>
<path d="M208.969 2H193.031C189.148 2 186 5.148 186 9.03125V24.9688C186 28.852 189.148 32 193.031 32H208.969C212.852 32 216 28.852 216 24.9688V9.03125C216 5.148 212.852 2 208.969 2Z" fill="#1D9BF0"/>
<path d="M209.387 12.7122C209.4 12.8982 209.4 13.0842 209.4 13.2719C209.4 18.9903 205.047 25.5854 197.087 25.5854V25.5819C194.735 25.5853 192.432 24.9118 190.453 23.6418C190.795 23.6828 191.139 23.7037 191.483 23.7043C193.432 23.7059 195.325 23.0522 196.858 21.8482C195.955 21.831 195.08 21.5322 194.355 20.9934C193.63 20.4545 193.092 19.7027 192.815 18.8429C193.463 18.9679 194.132 18.9424 194.769 18.7684C192.75 18.3604 191.297 16.5866 191.297 14.5264V14.4716C191.899 14.8068 192.573 14.9926 193.261 15.0132C191.36 13.7423 190.774 11.2126 191.922 9.23468C193.008 10.5717 194.364 11.6653 195.9 12.4442C197.437 13.2232 199.12 13.6701 200.841 13.756C200.67 13.0175 200.695 12.247 200.915 11.5214C201.134 10.7958 201.541 10.1406 202.093 9.62128C203.836 7.98277 206.577 8.06679 208.216 9.8089C209.185 9.61757 210.114 9.26228 210.964 8.75832C210.641 9.76035 209.965 10.6109 209.062 11.1518C209.92 11.0506 210.757 10.8209 211.547 10.4705C210.966 11.3403 210.235 12.0994 209.387 12.7122Z" fill="white"/>
</g>
<g clip-path="url(#clip2_27_18)">
<path d="M259.233 12.2425C261.422 13.807 264.103 14.7276 266.999 14.7276V9.15514C266.451 9.15536 265.904 9.09814 265.368 8.98444V13.3708C262.472 13.3708 259.791 12.4503 257.602 10.8859V22.2578C257.602 27.9467 252.99 32.558 247.301 32.558C245.179 32.558 243.206 31.9164 241.567 30.8158C243.437 32.7284 246.046 33.9148 248.932 33.9148C254.621 33.9148 259.233 29.3034 259.233 23.6143V12.2425H259.233ZM261.245 6.6205C260.126 5.39849 259.392 3.81925 259.233 2.07329V1.3566H257.687C258.076 3.57563 259.403 5.47142 261.245 6.6205ZM245.165 26.4505C244.54 25.6312 244.202 24.6287 244.204 23.598C244.204 20.9962 246.313 18.8865 248.916 18.8865C249.401 18.8863 249.883 18.9607 250.345 19.1073V13.4102C249.805 13.3362 249.26 13.3047 248.715 13.3163V17.7506C248.252 17.604 247.77 17.5296 247.285 17.5299C244.682 17.5299 242.573 19.6393 242.573 22.2415C242.573 24.0815 243.627 25.6745 245.165 26.4505Z" fill="#FF004F"/>
<path d="M257.602 10.8857C259.791 12.4502 262.472 13.3707 265.368 13.3707V8.98432C263.752 8.63998 262.321 7.79538 261.245 6.6205C259.403 5.4713 258.076 3.57551 257.687 1.3566H253.628V23.6141C253.618 26.2088 251.512 28.3098 248.915 28.3098C247.385 28.3098 246.026 27.5804 245.165 26.4504C243.627 25.6745 242.573 24.0814 242.573 22.2416C242.573 19.6397 244.682 17.53 247.284 17.53C247.783 17.53 248.264 17.6077 248.715 17.7507V13.3164C243.126 13.4319 238.631 17.9982 238.631 23.6142C238.631 26.4176 239.75 28.9591 241.567 30.8161C243.206 31.9164 245.179 32.5583 247.301 32.5583C252.99 32.5583 257.602 27.9466 257.602 22.2578L257.602 10.8857Z" fill="black"/>
<path d="M265.368 8.98421V7.79843C263.91 7.80054 262.482 7.39235 261.245 6.6205C262.34 7.81896 263.781 8.64541 265.368 8.98444M257.687 1.35648C257.65 1.14446 257.622 0.931023 257.602 0.716697V0H251.996V22.2577C251.987 24.8522 249.881 26.9532 247.284 26.9532C246.548 26.9543 245.822 26.7821 245.164 26.4506C246.025 27.5805 247.385 28.3097 248.915 28.3097C251.512 28.3097 253.618 26.209 253.627 23.6142V1.3566L257.687 1.35648ZM248.715 13.3163V12.0537C248.246 11.9897 247.774 11.9577 247.301 11.9578C241.612 11.9578 237 16.5694 237 22.2577C237 25.8241 238.813 28.9671 241.567 30.8158C239.75 28.959 238.631 26.4174 238.631 23.6141C238.631 17.9982 243.126 13.4318 248.715 13.3163Z" fill="#00F2EA"/>
</g>
<defs>
<radialGradient id="paint0_radial_27_18" cx="0" cy="0" r="1" gradientUnits="userSpaceOnUse" gradientTransform="translate(142.969 34.3106) rotate(-90) scale(29.7322 27.6533)">
<stop stop-color="#FFDD55"/>
<stop offset="0.1" stop-color="#FFDD55"/>
<stop offset="0.5" stop-color="#FF543E"/>
<stop offset="1" stop-color="#C837AB"/>
</radialGradient>
<radialGradient id="paint1_radial_27_18" cx="0" cy="0" r="1" gradientUnits="userSpaceOnUse" gradientTransform="translate(129.975 4.16105) rotate(78.681) scale(13.2905 54.7837)">
<stop stop-color="#3771C8"/>
<stop offset="0.128" stop-color="#3771C8"/>
<stop offset="1" stop-color="#6600FF" stop-opacity="0"/>
</radialGradient>
<clipPath id="clip0_27_18">
<rect width="30" height="30" fill="white" transform="translate(135 2)"/>
</clipPath>
<clipPath id="clip1_27_18">
<rect width="30" height="30" fill="white" transform="translate(186 2)"/>
</clipPath>
<clipPath id="clip2_27_18">
<rect width="30" height="34" fill="white" transform="translate(237)"/>
</clipPath>
</defs>
</svg>
