<svg width="81" height="24" viewBox="0 0 81 24" fill="none" xmlns="http://www.w3.org/2000/svg">
<path d="M38.8086 14C38.5807 14 38.4668 13.8747 38.4668 13.624V4.57324C38.4668 4.32259 38.5807 4.19727 38.8086 4.19727H44.79C45.0407 4.19727 45.166 4.2998 45.166 4.50488V5.01074C45.166 5.21582 45.0407 5.31836 44.79 5.31836H39.7793V8.35352H44.3799C44.6305 8.35352 44.7559 8.45605 44.7559 8.66113V9.16699C44.7559 9.37207 44.6305 9.47461 44.3799 9.47461H39.7793V12.8789H44.9951C45.2458 12.8789 45.3711 12.9814 45.3711 13.1865V13.6924C45.3711 13.8975 45.2458 14 44.9951 14H38.8086ZM47.2646 14C47.0596 14 46.957 13.8975 46.957 13.6924V7.12988C46.957 6.9248 47.0596 6.82227 47.2646 6.82227H47.8389C48.0439 6.82227 48.1465 6.9248 48.1465 7.12988V7.67676H48.1738C48.4701 7.34863 48.7891 7.10482 49.1309 6.94531C49.4727 6.78581 49.8988 6.70605 50.4092 6.70605C51.2386 6.70605 51.8333 6.94076 52.1934 7.41016C52.5579 7.875 52.7402 8.51302 52.7402 9.32422V13.6924C52.7402 13.8975 52.6377 14 52.4326 14H51.8447C51.6396 14 51.5371 13.8975 51.5371 13.6924V9.65234C51.5371 8.75911 51.389 8.19401 51.0928 7.95703C50.7965 7.71549 50.4206 7.59473 49.9648 7.59473C49.3724 7.59473 48.9235 7.77246 48.6182 8.12793C48.3128 8.47884 48.1602 9.08268 48.1602 9.93945V13.6924C48.1602 13.8975 48.0576 14 47.8525 14H47.2646ZM54.2783 10.4111C54.2783 9.34017 54.5426 8.45605 55.0713 7.75879C55.6045 7.05697 56.418 6.70605 57.5117 6.70605C58.25 6.70605 58.8128 6.83822 59.2002 7.10254C59.5921 7.3623 59.8747 7.62891 60.0479 7.90234C60.1436 8.05273 60.123 8.1735 59.9863 8.26465L59.5557 8.54492C59.4189 8.64062 59.2822 8.5791 59.1455 8.36035C59.0133 8.15072 58.8265 7.9707 58.585 7.82031C58.348 7.66992 57.9902 7.59473 57.5117 7.59473C56.8874 7.59473 56.4043 7.82487 56.0625 8.28516C55.7207 8.74544 55.5498 9.4541 55.5498 10.4111C55.5498 11.3682 55.7207 12.0768 56.0625 12.5371C56.4043 12.9974 56.8874 13.2275 57.5117 13.2275C58.0176 13.2275 58.4049 13.1318 58.6738 12.9404C58.9427 12.7445 59.1387 12.5326 59.2617 12.3047C59.3802 12.0905 59.5146 12.029 59.665 12.1201L60.123 12.3936C60.2598 12.4756 60.2803 12.5986 60.1846 12.7627C60.0706 12.9587 59.8109 13.2344 59.4053 13.5898C59.0042 13.9408 58.373 14.1162 57.5117 14.1162C56.418 14.1162 55.6045 13.7676 55.0713 13.0703C54.5426 12.3685 54.2783 11.4821 54.2783 10.4111ZM61.292 10.4111C61.292 9.34017 61.5745 8.45605 62.1396 7.75879C62.7093 7.05697 63.541 6.70605 64.6348 6.70605C65.7285 6.70605 66.5579 7.05697 67.123 7.75879C67.6927 8.45605 67.9775 9.34017 67.9775 10.4111C67.9775 11.4821 67.6927 12.3685 67.123 13.0703C66.5579 13.7676 65.7285 14.1162 64.6348 14.1162C63.541 14.1162 62.7093 13.7676 62.1396 13.0703C61.5745 12.3685 61.292 11.4821 61.292 10.4111ZM62.5635 10.4111C62.5635 11.3682 62.7526 12.0768 63.1309 12.5371C63.5091 12.9974 64.0104 13.2275 64.6348 13.2275C65.2591 13.2275 65.7604 12.9974 66.1387 12.5371C66.5169 12.0768 66.7061 11.3682 66.7061 10.4111C66.7061 9.4541 66.5169 8.74544 66.1387 8.28516C65.7604 7.82487 65.2591 7.59473 64.6348 7.59473C64.0104 7.59473 63.5091 7.82487 63.1309 8.28516C62.7526 8.74544 62.5635 9.4541 62.5635 10.4111ZM69.8369 14C69.6318 14 69.5293 13.8975 69.5293 13.6924V7.12988C69.5293 6.9248 69.6318 6.82227 69.8369 6.82227H70.4111C70.6162 6.82227 70.7188 6.9248 70.7188 7.12988V7.9502H70.7461C70.9648 7.54004 71.2223 7.23014 71.5186 7.02051C71.8148 6.81087 72.1839 6.70605 72.626 6.70605C72.9176 6.70605 73.1227 6.73112 73.2412 6.78125C73.346 6.82227 73.3848 6.89062 73.3574 6.98633L73.2002 7.54688C73.1774 7.62891 73.1182 7.66081 73.0225 7.64258C72.863 7.61068 72.7126 7.59473 72.5713 7.59473C72.0381 7.59473 71.5983 7.83626 71.252 8.31934C70.9056 8.79785 70.7324 9.45182 70.7324 10.2812V13.6924C70.7324 13.8975 70.6299 14 70.4248 14H69.8369ZM74.0752 10.4111C74.0752 9.28092 74.3577 8.38086 74.9229 7.71094C75.488 7.04102 76.2969 6.70605 77.3496 6.70605C78.2246 6.70605 78.9492 7.01367 79.5234 7.62891C80.1022 8.23958 80.3916 9.21712 80.3916 10.5615C80.3916 10.7666 80.2982 10.8691 80.1113 10.8691H75.3467C75.4242 11.7487 75.6611 12.3617 76.0576 12.708C76.4541 13.0498 76.903 13.2207 77.4043 13.2207C77.9329 13.2207 78.3385 13.1318 78.6211 12.9541C78.9036 12.7764 79.111 12.6009 79.2432 12.4277C79.389 12.2363 79.5303 12.1999 79.667 12.3184L80.0703 12.667C80.1751 12.7581 80.1751 12.8835 80.0703 13.043C79.9837 13.1751 79.7354 13.387 79.3252 13.6787C78.9196 13.9704 78.2793 14.1162 77.4043 14.1162C76.265 14.1162 75.4242 13.7812 74.8818 13.1113C74.3441 12.4414 74.0752 11.5413 74.0752 10.4111ZM75.3193 9.98047H79.1816C79.1634 9.34245 78.9993 8.78418 78.6895 8.30566C78.3796 7.82259 77.9238 7.58105 77.3223 7.58105C76.7936 7.58105 76.3447 7.75879 75.9756 8.11426C75.6064 8.46517 75.3877 9.08724 75.3193 9.98047Z" fill="#F0F0F0"/>
</svg>
