<svg width="304" height="24" viewBox="0 0 304 24" fill="none" xmlns="http://www.w3.org/2000/svg">
<rect x="0.5" y="0.5" width="338" height="23" stroke="#F0F0F0"/>
<rect x="0.5" y="0.5" width="338" height="23" stroke="black" stroke-opacity="0.2"/>
<path d="M239.36 13.2617C239.118 13.043 239.055 12.8516 239.169 12.6875L239.524 12.1748C239.647 11.9971 239.845 12.0107 240.119 12.2158C240.479 12.4847 240.853 12.7057 241.24 12.8789C241.632 13.0521 242.106 13.1387 242.662 13.1387C243.072 13.1387 243.418 13.0771 243.701 12.9541C243.983 12.8311 244.209 12.6556 244.378 12.4277C244.551 12.1953 244.637 11.915 244.637 11.5869C244.637 11.3499 244.601 11.1312 244.528 10.9307C244.46 10.7256 244.348 10.5547 244.193 10.418C244.038 10.2812 243.876 10.1742 243.708 10.0967C243.43 9.96908 243.013 9.82096 242.457 9.65234C241.905 9.48372 241.422 9.30143 241.007 9.10547C240.597 8.90951 240.269 8.67253 240.023 8.39453C239.782 8.11654 239.62 7.83171 239.538 7.54004C239.46 7.24382 239.422 6.90658 239.422 6.52832C239.422 5.94954 239.59 5.45052 239.927 5.03125C240.265 4.61198 240.677 4.33398 241.165 4.19727C241.657 4.06055 242.156 3.99219 242.662 3.99219C243.241 3.99219 243.744 4.06738 244.172 4.21777C244.601 4.36816 244.984 4.56413 245.321 4.80566C245.558 4.97428 245.613 5.15202 245.485 5.33887L245.136 5.83789C245.032 5.98828 244.826 5.95638 244.521 5.74219C244.289 5.57812 244.004 5.42546 243.667 5.28418C243.334 5.13835 243.004 5.06543 242.675 5.06543C242.256 5.06543 241.908 5.11556 241.63 5.21582C241.352 5.31152 241.133 5.47559 240.973 5.70801C240.814 5.94043 240.734 6.20931 240.734 6.51465C240.734 6.70605 240.752 6.88379 240.789 7.04785C240.825 7.20736 240.919 7.37142 241.069 7.54004C241.219 7.70866 241.402 7.83854 241.616 7.92969C241.903 8.05273 242.347 8.19857 242.949 8.36719C243.555 8.53125 244.084 8.73405 244.535 8.97559C244.954 9.19889 245.255 9.43359 245.437 9.67969C245.624 9.92122 245.768 10.1855 245.868 10.4727C245.973 10.7552 246.025 11.0742 246.025 11.4297C246.025 12.0768 245.859 12.6169 245.526 13.0498C245.193 13.4827 244.799 13.7835 244.343 13.9521C243.888 14.1208 243.316 14.2051 242.628 14.2051C241.803 14.2051 241.119 14.1094 240.577 13.918C240.034 13.7266 239.629 13.5078 239.36 13.2617ZM247.173 10.4111C247.173 9.28092 247.456 8.38086 248.021 7.71094C248.586 7.04102 249.395 6.70605 250.448 6.70605C251.323 6.70605 252.047 7.01367 252.622 7.62891C253.2 8.23958 253.49 9.21712 253.49 10.5615C253.49 10.7666 253.396 10.8691 253.21 10.8691H248.445C248.522 11.7487 248.759 12.3617 249.156 12.708C249.552 13.0498 250.001 13.2207 250.503 13.2207C251.031 13.2207 251.437 13.1318 251.719 12.9541C252.002 12.7764 252.209 12.6009 252.341 12.4277C252.487 12.2363 252.629 12.1999 252.765 12.3184L253.169 12.667C253.273 12.7581 253.273 12.8835 253.169 13.043C253.082 13.1751 252.834 13.387 252.423 13.6787C252.018 13.9704 251.378 14.1162 250.503 14.1162C249.363 14.1162 248.522 13.7812 247.98 13.1113C247.442 12.4414 247.173 11.5413 247.173 10.4111ZM248.418 9.98047H252.28C252.262 9.34245 252.098 8.78418 251.788 8.30566C251.478 7.82259 251.022 7.58105 250.421 7.58105C249.892 7.58105 249.443 7.75879 249.074 8.11426C248.705 8.46517 248.486 9.08724 248.418 9.98047ZM255.377 14C255.172 14 255.069 13.8975 255.069 13.6924V7.12988C255.069 6.9248 255.172 6.82227 255.377 6.82227H255.951C256.156 6.82227 256.258 6.9248 256.258 7.12988V7.9502H256.286C256.505 7.54004 256.762 7.23014 257.058 7.02051C257.354 6.81087 257.724 6.70605 258.166 6.70605C258.457 6.70605 258.662 6.73112 258.781 6.78125C258.886 6.82227 258.924 6.89062 258.897 6.98633L258.74 7.54688C258.717 7.62891 258.658 7.66081 258.562 7.64258C258.403 7.61068 258.252 7.59473 258.111 7.59473C257.578 7.59473 257.138 7.83626 256.792 8.31934C256.445 8.79785 256.272 9.45182 256.272 10.2812V13.6924C256.272 13.8975 256.17 14 255.964 14H255.377ZM259.458 7.15723C259.38 6.93392 259.442 6.82227 259.642 6.82227H260.387C260.533 6.82227 260.636 6.91113 260.695 7.08887L262.144 11.6006C262.263 11.9697 262.342 12.2249 262.383 12.3662C262.429 12.5029 262.47 12.6738 262.506 12.8789H262.534C262.57 12.6738 262.609 12.5029 262.65 12.3662C262.696 12.2249 262.778 11.9697 262.896 11.6006L264.345 7.08887C264.405 6.91113 264.507 6.82227 264.653 6.82227H265.398C265.599 6.82227 265.66 6.93392 265.583 7.15723L263.34 13.583C263.245 13.861 263.122 14 262.971 14H262.069C261.919 14 261.796 13.861 261.7 13.583L259.458 7.15723ZM267.052 14C266.847 14 266.745 13.8975 266.745 13.6924V7.12988C266.745 6.9248 266.847 6.82227 267.052 6.82227H267.64C267.845 6.82227 267.948 6.9248 267.948 7.12988V13.6924C267.948 13.8975 267.845 14 267.64 14H267.052ZM267.052 5.52344C266.847 5.52344 266.745 5.4209 266.745 5.21582V4.62793C266.745 4.42285 266.847 4.32031 267.052 4.32031H267.64C267.845 4.32031 267.948 4.42285 267.948 4.62793V5.21582C267.948 5.4209 267.845 5.52344 267.64 5.52344H267.052ZM269.5 10.4111C269.5 9.34017 269.764 8.45605 270.293 7.75879C270.826 7.05697 271.639 6.70605 272.733 6.70605C273.471 6.70605 274.034 6.83822 274.422 7.10254C274.813 7.3623 275.096 7.62891 275.269 7.90234C275.365 8.05273 275.344 8.1735 275.208 8.26465L274.777 8.54492C274.64 8.64062 274.504 8.5791 274.367 8.36035C274.235 8.15072 274.048 7.9707 273.806 7.82031C273.569 7.66992 273.212 7.59473 272.733 7.59473C272.109 7.59473 271.626 7.82487 271.284 8.28516C270.942 8.74544 270.771 9.4541 270.771 10.4111C270.771 11.3682 270.942 12.0768 271.284 12.5371C271.626 12.9974 272.109 13.2275 272.733 13.2275C273.239 13.2275 273.626 13.1318 273.895 12.9404C274.164 12.7445 274.36 12.5326 274.483 12.3047C274.602 12.0905 274.736 12.029 274.886 12.1201L275.344 12.3936C275.481 12.4756 275.502 12.5986 275.406 12.7627C275.292 12.9587 275.032 13.2344 274.627 13.5898C274.226 13.9408 273.594 14.1162 272.733 14.1162C271.639 14.1162 270.826 13.7676 270.293 13.0703C269.764 12.3685 269.5 11.4821 269.5 10.4111ZM276.513 10.4111C276.513 9.28092 276.796 8.38086 277.361 7.71094C277.926 7.04102 278.735 6.70605 279.788 6.70605C280.663 6.70605 281.387 7.01367 281.962 7.62891C282.54 8.23958 282.83 9.21712 282.83 10.5615C282.83 10.7666 282.736 10.8691 282.549 10.8691H277.785C277.862 11.7487 278.099 12.3617 278.496 12.708C278.892 13.0498 279.341 13.2207 279.842 13.2207C280.371 13.2207 280.777 13.1318 281.059 12.9541C281.342 12.7764 281.549 12.6009 281.681 12.4277C281.827 12.2363 281.968 12.1999 282.105 12.3184L282.508 12.667C282.613 12.7581 282.613 12.8835 282.508 13.043C282.422 13.1751 282.173 13.387 281.763 13.6787C281.358 13.9704 280.717 14.1162 279.842 14.1162C278.703 14.1162 277.862 13.7812 277.32 13.1113C276.782 12.4414 276.513 11.5413 276.513 10.4111ZM277.757 9.98047H281.62C281.602 9.34245 281.437 8.78418 281.128 8.30566C280.818 7.82259 280.362 7.58105 279.76 7.58105C279.232 7.58105 278.783 7.75879 278.414 8.11426C278.045 8.46517 277.826 9.08724 277.757 9.98047ZM284.129 13.3301C283.987 13.1979 283.958 13.0749 284.04 12.9609L284.347 12.5303C284.448 12.3936 284.596 12.4004 284.792 12.5508C285.061 12.7559 285.359 12.9199 285.687 13.043C286.02 13.166 286.398 13.2275 286.822 13.2275C287.073 13.2275 287.296 13.1979 287.492 13.1387C287.688 13.0749 287.859 12.9587 288.005 12.79C288.155 12.6214 288.23 12.3958 288.23 12.1133C288.23 11.9492 288.194 11.7943 288.121 11.6484C288.052 11.5026 287.943 11.3864 287.793 11.2998C287.647 11.2087 287.503 11.138 287.362 11.0879C287.13 11.0013 286.897 10.9307 286.665 10.876C286.437 10.8167 286.136 10.7279 285.762 10.6094C285.512 10.5319 285.275 10.4225 285.051 10.2812C284.828 10.1354 284.632 9.93945 284.464 9.69336C284.299 9.44727 284.217 9.10775 284.217 8.6748C284.217 8.23275 284.352 7.85221 284.621 7.5332C284.89 7.21419 285.227 6.99772 285.632 6.88379C286.038 6.7653 286.432 6.70605 286.815 6.70605C287.38 6.70605 287.834 6.77214 288.175 6.9043C288.522 7.0319 288.82 7.18457 289.071 7.3623C289.217 7.46712 289.237 7.58789 289.132 7.72461L288.825 8.13477C288.729 8.26693 288.581 8.26237 288.381 8.12109C288.212 8.0026 287.973 7.89095 287.663 7.78613C287.353 7.68132 287.082 7.62891 286.849 7.62891C286.562 7.62891 286.316 7.66081 286.111 7.72461C285.906 7.78841 285.74 7.89779 285.612 8.05273C285.484 8.20768 285.421 8.38997 285.421 8.59961C285.421 8.75911 285.446 8.90267 285.496 9.03027C285.546 9.15332 285.639 9.26725 285.776 9.37207C285.913 9.47689 286.104 9.5612 286.35 9.625C286.733 9.72526 287.082 9.81641 287.396 9.89844C287.715 9.98047 288.002 10.0807 288.257 10.1992C288.59 10.3542 288.845 10.5251 289.023 10.7119C289.205 10.8988 289.331 11.1016 289.399 11.3203C289.467 11.5345 289.502 11.7738 289.502 12.0381C289.502 12.5257 289.356 12.9382 289.064 13.2754C288.777 13.6126 288.456 13.8382 288.1 13.9521C287.745 14.0615 287.316 14.1162 286.815 14.1162C286.136 14.1162 285.553 14.0205 285.065 13.8291C284.582 13.6331 284.27 13.4668 284.129 13.3301Z" fill="#F0F0F0"/>
<path d="M176.408 9.09863C176.408 7.50358 176.802 6.25488 177.59 5.35254C178.383 4.44564 179.52 3.99219 181.001 3.99219C181.867 3.99219 182.583 4.1403 183.148 4.43652C183.713 4.72819 184.119 5.12923 184.365 5.63965C184.492 5.90397 184.472 6.08626 184.303 6.18652L183.763 6.50098C183.581 6.60579 183.419 6.51921 183.278 6.24121C183.127 5.9541 182.881 5.68522 182.539 5.43457C182.198 5.18392 181.708 5.05859 181.07 5.05859C179.93 5.05859 179.101 5.41406 178.581 6.125C178.066 6.83138 177.809 7.82259 177.809 9.09863C177.809 10.3747 178.066 11.3682 178.581 12.0791C179.101 12.7855 179.93 13.1387 181.07 13.1387C181.726 13.1387 182.25 12.9883 182.642 12.6875C183.038 12.3867 183.326 12.0723 183.503 11.7441C183.645 11.4798 183.809 11.4001 183.996 11.5049L184.563 11.8262C184.727 11.9219 184.741 12.1042 184.604 12.373C184.335 12.8971 183.898 13.3346 183.291 13.6855C182.685 14.0319 181.922 14.2051 181.001 14.2051C179.52 14.2051 178.383 13.7539 177.59 12.8516C176.802 11.9447 176.408 10.6937 176.408 9.09863ZM185.944 10.4111C185.944 9.34017 186.226 8.45605 186.791 7.75879C187.361 7.05697 188.193 6.70605 189.287 6.70605C190.38 6.70605 191.21 7.05697 191.775 7.75879C192.344 8.45605 192.629 9.34017 192.629 10.4111C192.629 11.4821 192.344 12.3685 191.775 13.0703C191.21 13.7676 190.38 14.1162 189.287 14.1162C188.193 14.1162 187.361 13.7676 186.791 13.0703C186.226 12.3685 185.944 11.4821 185.944 10.4111ZM187.215 10.4111C187.215 11.3682 187.404 12.0768 187.783 12.5371C188.161 12.9974 188.662 13.2275 189.287 13.2275C189.911 13.2275 190.412 12.9974 190.79 12.5371C191.169 12.0768 191.358 11.3682 191.358 10.4111C191.358 9.4541 191.169 8.74544 190.79 8.28516C190.412 7.82487 189.911 7.59473 189.287 7.59473C188.662 7.59473 188.161 7.82487 187.783 8.28516C187.404 8.74544 187.215 9.4541 187.215 10.4111ZM194.489 14C194.284 14 194.181 13.8975 194.181 13.6924V7.12988C194.181 6.9248 194.284 6.82227 194.489 6.82227H195.063C195.268 6.82227 195.371 6.9248 195.371 7.12988V7.67676H195.398C195.694 7.34863 196.013 7.10482 196.355 6.94531C196.697 6.78581 197.123 6.70605 197.633 6.70605C198.463 6.70605 199.057 6.94076 199.417 7.41016C199.782 7.875 199.964 8.51302 199.964 9.32422V13.6924C199.964 13.8975 199.862 14 199.657 14H199.069C198.864 14 198.761 13.8975 198.761 13.6924V9.65234C198.761 8.75911 198.613 8.19401 198.317 7.95703C198.021 7.71549 197.645 7.59473 197.189 7.59473C196.596 7.59473 196.148 7.77246 195.842 8.12793C195.537 8.47884 195.384 9.08268 195.384 9.93945V13.6924C195.384 13.8975 195.282 14 195.077 14H194.489ZM201.543 7.72461C201.338 7.72461 201.236 7.64486 201.236 7.48535V7.06152C201.236 6.90202 201.338 6.82227 201.543 6.82227H202.35V6.20703C202.35 6.11589 202.373 6.0293 202.418 5.94727L202.897 5.0791C202.983 4.9196 203.054 4.83984 203.109 4.83984H203.348C203.485 4.83984 203.553 4.9196 203.553 5.0791V6.82227H205.009C205.214 6.82227 205.317 6.90202 205.317 7.06152V7.48535C205.317 7.64486 205.214 7.72461 205.009 7.72461H203.553V12.0791C203.553 12.5576 203.624 12.8698 203.765 13.0156C203.911 13.1569 204.084 13.2275 204.285 13.2275C204.44 13.2275 204.624 13.182 204.838 13.0908C205.057 12.9997 205.207 12.9222 205.289 12.8584C205.371 12.7946 205.435 12.8151 205.481 12.9199L205.706 13.4463C205.743 13.5374 205.716 13.6104 205.624 13.665C205.447 13.7699 205.187 13.8724 204.845 13.9727C204.503 14.0684 204.162 14.1162 203.82 14.1162C203.346 14.1162 202.981 13.9453 202.726 13.6035C202.475 13.2617 202.35 12.7786 202.35 12.1543V7.72461H201.543ZM206.684 12.0859C206.684 11.2747 207.062 10.68 207.819 10.3018C208.58 9.9235 209.715 9.70247 211.223 9.63867V9.17383C211.223 8.74544 211.125 8.3763 210.929 8.06641C210.738 7.75195 210.355 7.59473 209.781 7.59473C209.416 7.59473 209.124 7.63118 208.906 7.7041C208.687 7.77246 208.486 7.86589 208.304 7.98438C208.126 8.09831 207.955 8.24642 207.791 8.42871C207.668 8.56543 207.552 8.57227 207.443 8.44922L207.087 8.03906C206.987 7.92513 207.021 7.78841 207.19 7.62891C207.431 7.40104 207.666 7.23014 207.894 7.11621C208.122 7.00228 208.404 6.90658 208.742 6.8291C209.083 6.74707 209.43 6.70605 209.781 6.70605C210.733 6.70605 211.412 6.95215 211.818 7.44434C212.223 7.93197 212.426 8.60189 212.426 9.4541V13.6924C212.426 13.8975 212.324 14 212.119 14H211.503C211.326 14 211.237 13.8975 211.237 13.6924V13.3574H211.223C210.863 13.64 210.51 13.8382 210.163 13.9521C209.822 14.0615 209.439 14.1162 209.015 14.1162C208.268 14.1162 207.691 13.9385 207.286 13.583C206.885 13.223 206.684 12.724 206.684 12.0859ZM207.928 12.1133C207.928 12.3958 207.987 12.6237 208.106 12.7969C208.224 12.9655 208.388 13.0749 208.598 13.125C208.808 13.1706 209.026 13.1934 209.254 13.1934C209.605 13.1934 209.938 13.1592 210.252 13.0908C210.567 13.0225 210.89 12.8424 211.223 12.5508V10.5342C210.302 10.6025 209.646 10.6868 209.254 10.7871C208.862 10.8828 208.543 11.0514 208.297 11.293C208.051 11.5299 207.928 11.8034 207.928 12.1133ZM213.985 10.4111C213.985 9.34017 214.249 8.45605 214.778 7.75879C215.311 7.05697 216.124 6.70605 217.218 6.70605C217.956 6.70605 218.519 6.83822 218.907 7.10254C219.299 7.3623 219.581 7.62891 219.754 7.90234C219.85 8.05273 219.829 8.1735 219.693 8.26465L219.262 8.54492C219.125 8.64062 218.989 8.5791 218.852 8.36035C218.72 8.15072 218.533 7.9707 218.291 7.82031C218.054 7.66992 217.697 7.59473 217.218 7.59473C216.594 7.59473 216.111 7.82487 215.769 8.28516C215.427 8.74544 215.256 9.4541 215.256 10.4111C215.256 11.3682 215.427 12.0768 215.769 12.5371C216.111 12.9974 216.594 13.2275 217.218 13.2275C217.724 13.2275 218.111 13.1318 218.38 12.9404C218.649 12.7445 218.845 12.5326 218.968 12.3047C219.087 12.0905 219.221 12.029 219.371 12.1201L219.829 12.3936C219.966 12.4756 219.987 12.5986 219.891 12.7627C219.777 12.9587 219.517 13.2344 219.112 13.5898C218.711 13.9408 218.079 14.1162 217.218 14.1162C216.124 14.1162 215.311 13.7676 214.778 13.0703C214.249 12.3685 213.985 11.4821 213.985 10.4111ZM221.039 7.72461C220.834 7.72461 220.732 7.64486 220.732 7.48535V7.06152C220.732 6.90202 220.834 6.82227 221.039 6.82227H221.846V6.20703C221.846 6.11589 221.869 6.0293 221.914 5.94727L222.393 5.0791C222.48 4.9196 222.55 4.83984 222.605 4.83984H222.844C222.981 4.83984 223.049 4.9196 223.049 5.0791V6.82227H224.505C224.71 6.82227 224.813 6.90202 224.813 7.06152V7.48535C224.813 7.64486 224.71 7.72461 224.505 7.72461H223.049V12.0791C223.049 12.5576 223.12 12.8698 223.261 13.0156C223.407 13.1569 223.58 13.2275 223.781 13.2275C223.936 13.2275 224.12 13.182 224.334 13.0908C224.553 12.9997 224.704 12.9222 224.786 12.8584C224.868 12.7946 224.931 12.8151 224.977 12.9199L225.203 13.4463C225.239 13.5374 225.212 13.6104 225.121 13.665C224.943 13.7699 224.683 13.8724 224.341 13.9727C223.999 14.0684 223.658 14.1162 223.316 14.1162C222.842 14.1162 222.477 13.9453 222.222 13.6035C221.971 13.2617 221.846 12.7786 221.846 12.1543V7.72461H221.039Z" fill="#F0F0F0"/>
<path d="M122.394 14C122.157 14 122.096 13.8496 122.21 13.5488L125.614 4.61426C125.719 4.33626 125.869 4.19727 126.065 4.19727H127.022C127.218 4.19727 127.369 4.33626 127.473 4.61426L130.878 13.5488C130.992 13.8496 130.93 14 130.693 14H129.996C129.754 14 129.59 13.8883 129.504 13.665L128.649 11.4023H124.438L123.584 13.665C123.497 13.8883 123.333 14 123.092 14H122.394ZM124.869 10.2812H128.219L127.173 7.54688C127.077 7.29167 126.981 7.00911 126.886 6.69922C126.794 6.38932 126.685 5.94954 126.557 5.37988H126.53C126.402 5.94954 126.291 6.38932 126.195 6.69922C126.104 7.00911 126.011 7.29167 125.915 7.54688L124.869 10.2812ZM132.3 14C132.095 14 131.992 13.8975 131.992 13.6924V4.21777C131.992 4.0127 132.095 3.91016 132.3 3.91016H132.887C133.093 3.91016 133.195 4.0127 133.195 4.21777V7.25977C133.195 7.40104 133.191 7.54004 133.181 7.67676H133.195C133.446 7.37598 133.728 7.139 134.043 6.96582C134.357 6.79264 134.776 6.70605 135.301 6.70605C136.212 6.70605 136.905 7.07975 137.379 7.82715C137.853 8.56999 138.09 9.43132 138.09 10.4111C138.09 11.391 137.853 12.2546 137.379 13.002C136.905 13.7448 136.212 14.1162 135.301 14.1162C134.776 14.1162 134.357 14.0296 134.043 13.8564C133.728 13.6833 133.446 13.4463 133.195 13.1455H133.181L133.14 13.6924C133.127 13.8975 133.038 14 132.874 14H132.3ZM133.195 11.1973C133.195 11.8809 133.357 12.3913 133.68 12.7285C134.009 13.0612 134.419 13.2275 134.911 13.2275C135.604 13.2275 136.094 12.9678 136.381 12.4482C136.672 11.9287 136.818 11.2497 136.818 10.4111C136.818 9.57259 136.672 8.89355 136.381 8.37402C136.094 7.85449 135.604 7.59473 134.911 7.59473C134.419 7.59473 134.009 7.76335 133.68 8.10059C133.357 8.43327 133.195 8.94141 133.195 9.625V11.1973ZM139.259 10.4111C139.259 9.34017 139.541 8.45605 140.106 7.75879C140.676 7.05697 141.508 6.70605 142.601 6.70605C143.695 6.70605 144.525 7.05697 145.09 7.75879C145.659 8.45605 145.944 9.34017 145.944 10.4111C145.944 11.4821 145.659 12.3685 145.09 13.0703C144.525 13.7676 143.695 14.1162 142.601 14.1162C141.508 14.1162 140.676 13.7676 140.106 13.0703C139.541 12.3685 139.259 11.4821 139.259 10.4111ZM140.53 10.4111C140.53 11.3682 140.719 12.0768 141.097 12.5371C141.476 12.9974 141.977 13.2275 142.601 13.2275C143.226 13.2275 143.727 12.9974 144.105 12.5371C144.484 12.0768 144.673 11.3682 144.673 10.4111C144.673 9.4541 144.484 8.74544 144.105 8.28516C143.727 7.82487 143.226 7.59473 142.601 7.59473C141.977 7.59473 141.476 7.82487 141.097 8.28516C140.719 8.74544 140.53 9.4541 140.53 10.4111ZM147.482 11.498V7.12988C147.482 6.9248 147.585 6.82227 147.79 6.82227H148.378C148.583 6.82227 148.685 6.9248 148.685 7.12988V11.1699C148.685 12.0632 148.833 12.6305 149.13 12.8721C149.426 13.109 149.793 13.2275 150.23 13.2275C150.804 13.2275 151.244 13.0521 151.55 12.7012C151.855 12.3457 152.008 11.7396 152.008 10.8828V7.12988C152.008 6.9248 152.11 6.82227 152.315 6.82227H152.903C153.108 6.82227 153.211 6.9248 153.211 7.12988V13.6924C153.211 13.8975 153.108 14 152.903 14H152.329C152.124 14 152.021 13.8975 152.021 13.6924V13.1455H151.994C151.698 13.4736 151.379 13.7174 151.037 13.877C150.695 14.0365 150.278 14.1162 149.786 14.1162C148.988 14.1162 148.405 13.8838 148.036 13.4189C147.667 12.9495 147.482 12.3092 147.482 11.498ZM154.803 7.72461C154.598 7.72461 154.496 7.64486 154.496 7.48535V7.06152C154.496 6.90202 154.598 6.82227 154.803 6.82227H155.61V6.20703C155.61 6.11589 155.633 6.0293 155.678 5.94727L156.157 5.0791C156.244 4.9196 156.314 4.83984 156.369 4.83984H156.608C156.745 4.83984 156.813 4.9196 156.813 5.0791V6.82227H158.269C158.474 6.82227 158.577 6.90202 158.577 7.06152V7.48535C158.577 7.64486 158.474 7.72461 158.269 7.72461H156.813V12.0791C156.813 12.5576 156.884 12.8698 157.025 13.0156C157.171 13.1569 157.344 13.2275 157.545 13.2275C157.7 13.2275 157.884 13.182 158.098 13.0908C158.317 12.9997 158.468 12.9222 158.55 12.8584C158.632 12.7946 158.695 12.8151 158.741 12.9199L158.967 13.4463C159.003 13.5374 158.976 13.6104 158.885 13.665C158.707 13.7699 158.447 13.8724 158.105 13.9727C157.763 14.0684 157.422 14.1162 157.08 14.1162C156.606 14.1162 156.241 13.9453 155.986 13.6035C155.735 13.2617 155.61 12.7786 155.61 12.1543V7.72461H154.803Z" fill="#F0F0F0"/>
<path d="M66.5749 14C66.347 14 66.2331 13.8747 66.2331 13.624V4.57324C66.2331 4.32259 66.347 4.19727 66.5749 4.19727H67.2038C67.4316 4.19727 67.5456 4.32259 67.5456 4.57324V8.33984H72.3171V4.57324C72.3171 4.32259 72.431 4.19727 72.6589 4.19727H73.2878C73.5156 4.19727 73.6296 4.32259 73.6296 4.57324V13.624C73.6296 13.8747 73.5156 14 73.2878 14H72.6589C72.431 14 72.3171 13.8747 72.3171 13.624V9.46094H67.5456V13.624C67.5456 13.8747 67.4316 14 67.2038 14H66.5749ZM75.3727 10.4111C75.3727 9.34017 75.6553 8.45605 76.2204 7.75879C76.79 7.05697 77.6217 6.70605 78.7155 6.70605C79.8092 6.70605 80.6387 7.05697 81.2038 7.75879C81.7734 8.45605 82.0583 9.34017 82.0583 10.4111C82.0583 11.4821 81.7734 12.3685 81.2038 13.0703C80.6387 13.7676 79.8092 14.1162 78.7155 14.1162C77.6217 14.1162 76.79 13.7676 76.2204 13.0703C75.6553 12.3685 75.3727 11.4821 75.3727 10.4111ZM76.6442 10.4111C76.6442 11.3682 76.8333 12.0768 77.2116 12.5371C77.5898 12.9974 78.0911 13.2275 78.7155 13.2275C79.3398 13.2275 79.8411 12.9974 80.2194 12.5371C80.5977 12.0768 80.7868 11.3682 80.7868 10.4111C80.7868 9.4541 80.5977 8.74544 80.2194 8.28516C79.8411 7.82487 79.3398 7.59473 78.7155 7.59473C78.0911 7.59473 77.5898 7.82487 77.2116 8.28516C76.8333 8.74544 76.6442 9.4541 76.6442 10.4111ZM83.9176 14C83.7126 14 83.61 13.8975 83.61 13.6924V7.12988C83.61 6.9248 83.7126 6.82227 83.9176 6.82227H84.4919C84.6969 6.82227 84.7995 6.9248 84.7995 7.12988V7.67676H84.8268C85.123 7.34863 85.4443 7.10482 85.7907 6.94531C86.137 6.78581 86.4697 6.70605 86.7887 6.70605C87.3766 6.70605 87.8278 6.85417 88.1423 7.15039C88.4613 7.44206 88.6663 7.736 88.7575 8.03223H88.7848C89.0355 7.65853 89.3522 7.34408 89.735 7.08887C90.1178 6.83366 90.5257 6.70605 90.9587 6.70605C91.6833 6.70605 92.2301 6.94076 92.5993 7.41016C92.9684 7.875 93.153 8.51302 93.153 9.32422V13.6924C93.153 13.8975 93.0505 14 92.8454 14H92.2575C92.0524 14 91.9499 13.8975 91.9499 13.6924V9.7207C91.9499 8.82747 91.8382 8.25098 91.6149 7.99121C91.3916 7.72689 91.0475 7.59473 90.5827 7.59473C90.127 7.59473 89.7464 7.79069 89.4411 8.18262C89.1357 8.56999 88.9831 9.1556 88.9831 9.93945V13.6924C88.9831 13.8975 88.8805 14 88.6755 14H88.0876C87.8825 14 87.7799 13.8975 87.7799 13.6924V9.7207C87.7799 8.82747 87.6683 8.25098 87.445 7.99121C87.2217 7.72689 86.8776 7.59473 86.4128 7.59473C85.957 7.59473 85.5765 7.77246 85.2712 8.12793C84.9658 8.47884 84.8131 9.08268 84.8131 9.93945V13.6924C84.8131 13.8975 84.7106 14 84.5055 14H83.9176ZM94.6911 10.4111C94.6911 9.28092 94.9736 8.38086 95.5387 7.71094C96.1038 7.04102 96.9128 6.70605 97.9655 6.70605C98.8405 6.70605 99.5651 7.01367 100.139 7.62891C100.718 8.23958 101.007 9.21712 101.007 10.5615C101.007 10.7666 100.914 10.8691 100.727 10.8691H95.9626C96.04 11.7487 96.277 12.3617 96.6735 12.708C97.07 13.0498 97.5189 13.2207 98.0202 13.2207C98.5488 13.2207 98.9544 13.1318 99.237 12.9541C99.5195 12.7764 99.7269 12.6009 99.859 12.4277C100.005 12.2363 100.146 12.1999 100.283 12.3184L100.686 12.667C100.791 12.7581 100.791 12.8835 100.686 13.043C100.6 13.1751 100.351 13.387 99.9411 13.6787C99.5355 13.9704 98.8952 14.1162 98.0202 14.1162C96.8809 14.1162 96.04 13.7812 95.4977 13.1113C94.96 12.4414 94.6911 11.5413 94.6911 10.4111ZM95.9352 9.98047H99.7975C99.7793 9.34245 99.6152 8.78418 99.3053 8.30566C98.9954 7.82259 98.5397 7.58105 97.9381 7.58105C97.4095 7.58105 96.9606 7.75879 96.5915 8.11426C96.2223 8.46517 96.0036 9.08724 95.9352 9.98047Z" fill="#F0F0F0"/>
</svg>
